<svg width="29" height="27" viewBox="0 0 29 27" fill="none" xmlns="http://www.w3.org/2000/svg">
<path d="M11.0103 0.165961L7.21375 9.18073H4.73667L2.86858 1.98551C2.755 1.54295 2.65712 1.3806 2.31154 1.19419C1.74846 0.889932 0.818042 0.604914 0 0.426927L0.0555833 0.165961H4.04308C4.30366 0.165701 4.55574 0.258158 4.75384 0.426644C4.95193 0.59513 5.08298 0.828544 5.12333 1.08476L6.11054 6.30168L8.54896 0.165961H11.0103ZM20.7169 6.23794C20.7265 3.85797 17.4109 3.72689 17.4338 2.66378C17.4411 2.34028 17.7504 1.99633 18.4271 1.90854C19.2201 1.83359 20.0187 1.97319 20.7386 2.31262L21.1495 0.400469C20.4486 0.138234 19.7063 0.00261762 18.9575 0C16.6412 0 15.0111 1.22666 14.9966 2.98127C14.9821 4.27889 16.1603 5.00166 17.0484 5.4346C17.9619 5.87595 18.2688 6.15977 18.264 6.55423C18.2579 7.16034 17.5365 7.42612 16.8623 7.43694C15.6842 7.45498 15.0015 7.12066 14.4553 6.86811L14.0312 8.84279C14.5785 9.09294 15.5887 9.31181 16.6363 9.32143C19.0977 9.32143 20.7084 8.11161 20.7169 6.23794ZM26.8323 9.18073H29L27.109 0.165961H25.108C24.8942 0.163989 24.6847 0.225993 24.5067 0.343933C24.3288 0.461873 24.1905 0.630308 24.1099 0.827397L20.5948 9.18073H23.055L23.5444 7.8338H26.5507L26.8323 9.18073ZM24.2186 5.9866L25.4511 2.60125L26.1616 5.9866H24.2186ZM14.3586 0.165961L12.4217 9.18073H10.0775L12.0169 0.165961H14.3586Z" fill="#1A33C8"/>
<path fill-rule="evenodd" clip-rule="evenodd" d="M11.2957 25.0891H16.7039V15.3269H11.2957V25.0891Z" fill="#FF5F00"/>
<path fill-rule="evenodd" clip-rule="evenodd" d="M11.6393 20.2087C11.6393 18.2282 12.5624 16.4643 14 15.3277C12.9486 14.4962 11.6221 14.0002 10.1803 14.0002C6.76693 14.0002 4 16.7799 4 20.2087C4 23.6375 6.76693 26.4172 10.1803 26.4172C11.6221 26.4172 12.9486 25.9212 14 25.0898C12.5624 23.953 11.6393 22.1892 11.6393 20.2087Z" fill="#EB001B"/>
<path fill-rule="evenodd" clip-rule="evenodd" d="M23.8071 24.0557V23.8148H23.7444L23.6725 23.9805L23.6003 23.8148H23.5377V24.0557H23.5818V23.8739L23.6494 24.0307H23.6953L23.7629 23.8736V24.0557H23.8071ZM23.4103 24.0557V23.8558H23.4906V23.8151H23.2863V23.8558H23.3665V24.0557H23.4103ZM24 20.2085C24 23.6373 21.2329 26.417 17.8198 26.417C16.3779 26.417 15.0513 25.921 14.0001 25.0896C15.4376 23.9529 16.3608 22.189 16.3608 20.2085C16.3608 18.2282 15.4376 16.4643 14.0001 15.3274C15.0513 14.496 16.3779 14 17.8198 14C21.2329 14 24 16.7797 24 20.2085Z" fill="#F79E1B"/>
</svg>
