<svg width="42" height="27" viewBox="0 0 42 27" fill="none" xmlns="http://www.w3.org/2000/svg">
<path d="M7.44147 19.1122L4.8755 25.2049H3.20133L1.93877 20.3419C1.862 20.0428 1.79585 19.9331 1.56228 19.8071C1.18172 19.6015 0.552883 19.4088 0 19.2885L0.0375667 19.1122H2.73257C2.90868 19.112 3.07905 19.1745 3.21294 19.2884C3.34682 19.4022 3.43539 19.56 3.46267 19.7331L4.12988 23.2591L5.77792 19.1122H7.44147ZM14.0017 23.216C14.0083 21.6075 11.7674 21.5189 11.7829 20.8003C11.7878 20.5817 11.9968 20.3492 12.4542 20.2899C12.9901 20.2393 13.5299 20.3336 14.0164 20.563L14.2941 19.2707C13.8204 19.0934 13.3187 19.0018 12.8127 19C11.2471 19 10.1455 19.8291 10.1356 21.0149C10.1258 21.8919 10.9221 22.3804 11.5224 22.673C12.1398 22.9713 12.3472 23.1632 12.3439 23.4298C12.3398 23.8394 11.8523 24.019 11.3966 24.0263C10.6003 24.0385 10.1389 23.8126 9.76978 23.6419L9.48313 24.9765C9.85308 25.1456 10.5358 25.2935 11.2439 25.3C12.9074 25.3 13.996 24.4823 14.0017 23.216ZM18.1349 25.2049H19.6L18.3219 19.1122H16.9695C16.825 19.1108 16.6834 19.1527 16.5632 19.2325C16.4429 19.3122 16.3494 19.426 16.2949 19.5592L13.9193 25.2049H15.582L15.9128 24.2946H17.9446L18.1349 25.2049ZM16.3685 23.0461L17.2015 20.7581L17.6816 23.0461H16.3685ZM9.70445 19.1122L8.39533 25.2049H6.811L8.12175 19.1122H9.70445Z" fill="#1A33C8"/>
<path fill-rule="evenodd" clip-rule="evenodd" d="M31.8366 25.8713H36.1632V18.0615H31.8366V25.8713Z" fill="#FF5F00"/>
<path fill-rule="evenodd" clip-rule="evenodd" d="M32.1114 21.967C32.1114 20.3826 32.8499 18.9715 34 18.0622C33.1588 17.397 32.0977 17.0002 30.9442 17.0002C28.2135 17.0002 26 19.224 26 21.967C26 24.7101 28.2135 26.9338 30.9442 26.9338C32.0977 26.9338 33.1588 26.537 34 25.8719C32.8499 24.9624 32.1114 23.5514 32.1114 21.967Z" fill="#EB001B"/>
<path fill-rule="evenodd" clip-rule="evenodd" d="M41.8457 25.0445V24.8518H41.7955L41.738 24.9844L41.6803 24.8518H41.6302V25.0445H41.6655V24.8991L41.7196 25.0245H41.7562L41.8104 24.8989V25.0445H41.8457ZM41.5282 25.0445V24.8846H41.5925V24.8521H41.4291V24.8846H41.4932V25.0445H41.5282ZM42 21.9668C42 24.7098 39.7864 26.9336 37.0558 26.9336C35.9024 26.9336 34.8411 26.5368 34.0001 25.8717C35.1501 24.9623 35.8886 23.5512 35.8886 21.9668C35.8886 20.3825 35.1501 18.9714 34.0001 18.0619C34.8411 17.3968 35.9024 17 37.0558 17C39.7864 17 42 19.2237 42 21.9668Z" fill="#F79E1B"/>
<g clip-path="url(#clip0_638_3418)">
<path fill-rule="evenodd" clip-rule="evenodd" d="M11.3177 2.26408e-07V0.00519673C11.3125 0.00519673 9.67713 1.98231e-07 9.24104 1.56415C8.84129 2.99838 7.71471 6.95812 7.68356 7.06725H7.37206C7.37206 7.06725 6.21953 3.01917 5.81459 1.55895C5.37849 -0.00519633 3.73795 2.26408e-07 3.73795 2.26408e-07H0V11.9H3.73795V4.83275H3.8937H4.04944L6.22991 11.9H8.82571L11.0062 4.83795H11.3177V11.9H15.0556V2.26408e-07H11.3177Z" fill="#4DB45E"/>
<path fill-rule="evenodd" clip-rule="evenodd" d="M24.9716 0C24.9716 0 23.8762 0.0987336 23.3622 1.24716L20.7145 7.06725H20.403V0H16.665V11.9H20.1953C20.1953 11.9 21.3427 11.7961 21.8566 10.6528L24.4524 4.83275H24.7639V11.9H28.5019V0H24.9716Z" fill="#4DB45E"/>
<path fill-rule="evenodd" clip-rule="evenodd" d="M30.1631 5.4043V11.8999H33.9011V8.10648H37.9505C39.7157 8.10648 41.2109 6.97884 41.7664 5.4043H30.1631Z" fill="#4DB45E"/>
<path fill-rule="evenodd" clip-rule="evenodd" d="M37.9505 0H29.6388C30.0541 2.26568 31.7518 4.08445 33.9478 4.67686C34.4462 4.81196 34.9706 4.88472 35.5105 4.88472H41.9169C41.974 4.6145 42 4.33908 42 4.05327C42 1.81358 40.1881 0 37.9505 0Z" fill="url(#paint0_linear_638_3418)"/>
</g>
<defs>
<linearGradient id="paint0_linear_638_3418" x1="29.6398" y1="2.44236" x2="42" y2="2.44236" gradientUnits="userSpaceOnUse">
<stop offset="0.3" stop-color="#00B4E6"/>
<stop offset="1" stop-color="#088CCB"/>
</linearGradient>
<clipPath id="clip0_638_3418">
<rect width="42" height="11.9" fill="white"/>
</clipPath>
</defs>
</svg>
