<?xml version="1.0" standalone="no"?>
<!DOCTYPE svg PUBLIC "-//W3C//DTD SVG 20010904//EN"
 "http://www.w3.org/TR/2001/REC-SVG-20010904/DTD/svg10.dtd">
<svg version="1.0" xmlns="http://www.w3.org/2000/svg"
 width="175.000000pt" height="113.000000pt" viewBox="0 0 175.000000 113.000000"
 preserveAspectRatio="xMidYMid meet">

<g transform="translate(0.000000,113.000000) scale(0.100000,-0.100000)"
fill="#000000" stroke="none">
<path d="M314 1109 c-18 -20 -19 -41 -19 -354 0 -313 1 -334 19 -354 18 -20
29 -21 193 -21 l174 0 37 -29 c39 -31 116 -61 156 -61 21 0 88 18 129 35 16 7
17 -4 17 -147 0 -106 4 -158 12 -166 9 -9 68 -12 204 -12 162 0 195 3 208 16
14 13 16 59 16 350 0 321 -1 335 -20 354 -19 19 -33 20 -204 20 -159 0 -185 2
-197 17 -43 51 -184 73 -261 39 -21 -9 -40 -16 -43 -16 -3 0 -5 71 -5 158 0
141 -2 161 -18 175 -16 15 -45 17 -199 17 -170 0 -181 -1 -199 -21z m46 -49
c0 -31 -16 -41 -26 -15 -8 19 2 45 16 45 5 0 10 -13 10 -30z m190 -2 c0 -10
-6 -18 -13 -18 -7 0 -13 8 -13 18 0 10 6 19 13 19 7 0 13 -9 13 -19z m-132
-15 c-10 -2 -26 -2 -35 0 -10 3 -2 5 17 5 19 0 27 -2 18 -5z m230 0 c-10 -2
-26 -2 -35 0 -10 3 -2 5 17 5 19 0 27 -2 18 -5z m52 -122 l0 -68 -31 -7 c-17
-3 -44 -6 -60 -6 -26 0 -29 4 -29 30 0 18 -6 33 -15 36 -9 4 -60 -20 -121 -55
-58 -33 -108 -61 -110 -61 -2 0 -4 45 -4 100 l0 100 185 0 185 0 0 -69z m-82
-113 c76 -3 77 -3 80 -32 2 -19 -4 -36 -19 -52 -19 -20 -32 -24 -81 -24 -55 0
-58 -1 -58 -25 0 -14 -2 -25 -5 -25 -14 0 -176 103 -170 108 3 4 43 28 88 54
82 47 82 47 85 23 3 -23 7 -24 80 -27z m320 -40 c63 -16 133 -85 151 -150 58
-205 -184 -371 -349 -239 -141 112 -104 326 66 386 49 18 73 18 132 3z m-497
-108 c116 -69 139 -74 139 -30 0 27 3 30 30 30 28 0 30 -2 19 -22 -6 -12 -12
-45 -13 -75 l-1 -53 -142 0 -143 0 0 105 c0 58 2 105 5 105 3 0 50 -27 106
-60z m709 10 c0 -11 -7 -20 -15 -20 -8 0 -15 5 -15 11 0 5 5 7 10 4 6 -3 10 1
10 9 0 9 2 16 5 16 3 0 5 -9 5 -20z m123 0 c4 -15 0 -20 -14 -20 -17 0 -18 3
-9 20 6 11 12 20 14 20 2 0 6 -9 9 -20z m92 -13 c14 -3 11 -5 -10 -6 -25 -1
-31 3 -31 20 0 17 2 18 11 6 6 -8 19 -17 30 -20z m55 -158 c0 -55 -3 -99 -8
-97 -4 2 -53 29 -110 62 -57 32 -109 56 -117 52 -8 -3 -15 -17 -15 -31 0 -20
-5 -25 -24 -25 -23 0 -24 2 -15 32 5 18 9 50 9 70 l0 38 140 0 140 0 0 -101z
m-1060 -55 c0 -31 -23 -28 -28 4 -2 15 2 22 12 22 11 0 16 -9 16 -26z m270 6
c6 -11 8 -20 6 -20 -3 0 -10 9 -16 20 -6 11 -8 20 -6 20 3 0 10 -9 16 -20z
m680 -32 l89 -52 -90 -53 c-49 -29 -92 -53 -94 -53 -3 0 -5 11 -5 25 0 23 -3
24 -77 27 -70 3 -78 5 -78 23 0 11 11 35 24 53 21 29 28 32 77 32 51 0 54 1
54 25 0 14 2 25 5 25 3 0 46 -23 95 -52z m110 -193 l0 -105 -185 0 -186 0 3
78 3 77 58 3 57 3 0 -31 c0 -34 23 -49 49 -33 9 5 43 25 76 43 33 18 74 42 90
52 17 10 31 18 33 18 1 0 2 -47 2 -105z m-188 -152 c-134 -3 -152 -5 -150 -20
2 -9 -3 -18 -9 -20 -8 -3 -13 5 -13 21 l0 26 163 -2 162 -2 -153 -3z"/>
<path d="M693 633 c-9 -3 -13 -31 -13 -89 l0 -85 27 3 c22 2 28 8 28 28 0 20
6 26 30 28 16 2 33 9 37 15 12 19 9 82 -4 95 -12 12 -81 15 -105 5z m67 -58
c0 -8 -7 -15 -15 -15 -8 0 -15 7 -15 15 0 8 7 15 15 15 8 0 15 -7 15 -15z"/>
<path d="M830 612 c0 -26 3 -29 25 -24 35 6 33 -17 -5 -53 -29 -28 -39 -58
-21 -69 4 -3 31 -3 60 1 45 5 51 8 51 29 0 18 -6 24 -22 24 l-21 0 23 25 c20
21 22 29 14 57 -9 31 -13 33 -57 36 -46 3 -47 2 -47 -26z"/>
<path d="M967 633 c-4 -3 -7 -44 -7 -90 0 -82 0 -83 25 -83 21 0 25 5 25 30 0
26 3 30 29 30 40 0 55 21 46 67 -4 21 -12 41 -18 45 -15 10 -91 10 -100 1z
m73 -58 c0 -8 -7 -15 -15 -15 -8 0 -15 7 -15 15 0 8 7 15 15 15 8 0 15 -7 15
-15z"/>
</g>
</svg>
