<svg width="48" height="18" viewBox="0 0 48 18" fill="none" xmlns="http://www.w3.org/2000/svg">
<g clip-path="url(#clip0_638_3586)">
<path fill-rule="evenodd" clip-rule="evenodd" d="M11.9013 15.3456C13.3959 15.3456 15.0174 15.8571 16.8127 17.4444C16.9926 17.6033 17.232 17.4058 17.0748 17.2083C15.3109 14.9854 13.6795 14.5622 12.0524 14.2047C10.0618 13.7666 9.03836 12.6488 8.32499 11.4218C8.18319 11.1779 8.11919 11.221 8.1065 11.5349C8.0905 11.9183 8.11754 12.4265 8.20361 12.9263C8.12305 12.9296 8.0425 12.9291 7.96085 12.9291C5.11395 12.9291 2.80554 10.6251 2.80554 7.78317C2.80554 4.94179 5.11395 2.63834 7.9614 2.63834C10.8083 2.63834 13.1167 4.94179 13.1167 7.78317C13.1167 7.98565 13.1068 8.18593 13.0836 8.38179C12.7073 8.31392 11.9664 8.3062 11.4466 8.35089C11.2513 8.36799 11.2789 8.45903 11.4268 8.48551C13.1311 8.79282 14.3013 9.84717 14.5694 11.76C14.5749 11.8041 14.6334 11.8168 14.656 11.7788C15.3807 10.5721 15.7624 9.19067 15.76 7.78317C15.76 3.48524 12.2682 0 7.9614 0C3.65409 0 0.162231 3.48469 0.162231 7.78317C0.162231 12.0822 3.65409 15.5674 7.9614 15.5674C9.10347 15.5674 10.2378 15.3456 11.9013 15.3456ZM12.4817 12.5197C12.8287 12.8121 12.9341 13.1603 12.7509 13.4058C12.6488 13.5404 12.4833 13.6149 12.2847 13.6149C12.0909 13.6149 11.9033 13.547 11.7545 13.4229C11.4389 13.1476 11.3462 12.7018 11.552 12.4485C11.6326 12.3492 11.7633 12.2946 11.92 12.2946C12.1104 12.2946 12.3101 12.3746 12.4817 12.5197ZM14.0828 11.776C14.1335 12.117 14.0259 12.2582 13.9173 12.2582C13.7986 12.2582 13.6502 12.1203 13.4753 11.8472C13.3021 11.5779 13.2386 11.269 13.3247 11.1128C13.381 11.0096 13.4996 10.9644 13.6491 11.0212C13.9388 11.1299 14.0519 11.5724 14.0828 11.776ZM24.8933 9.99392L23.9939 8.9142C23.9728 8.88874 23.9594 8.8578 23.9553 8.825C23.9512 8.7922 23.9565 8.7589 23.9706 8.72901C23.9848 8.69912 24.0071 8.67388 24.0351 8.65626C24.0631 8.63864 24.0955 8.62936 24.1286 8.62951H26.0094C26.0988 8.36358 26.1495 8.07944 26.1495 7.78372C26.1495 6.43199 25.141 5.2662 23.7573 5.2662C22.3735 5.2662 21.365 6.43199 21.365 7.78372C21.365 9.13544 22.3735 10.2852 23.7573 10.2852C24.1766 10.2852 24.5606 10.1782 24.8938 9.99337L24.8933 9.99392ZM28.9617 11.8174C29.0593 11.9255 28.9793 12.0988 28.832 12.0988H26.7796C26.7383 12.0988 26.6976 12.0898 26.6602 12.0723C26.6229 12.0549 26.5898 12.0294 26.5633 11.9978L26.2157 11.5801C25.4837 12.0549 24.6297 12.3071 23.7573 12.3062C21.2585 12.3062 19.2259 10.2775 19.2259 7.78372C19.2259 5.28993 21.2585 3.26124 23.7573 3.26124C26.256 3.26124 28.2886 5.28993 28.2886 7.78372C28.2886 8.68303 28.0237 9.52055 27.5686 10.2256L28.9617 11.8174ZM47.9239 3.47034H46.2483C46.1894 3.47049 46.1329 3.49396 46.0912 3.53563C46.0495 3.57729 46.0261 3.63376 46.0259 3.69269V11.8764C46.0259 11.9994 46.1252 12.0988 46.2483 12.0988H47.9239C48.0469 12.0988 48.1468 11.9994 48.1468 11.8764V3.69214C48.1468 3.63302 48.1233 3.57632 48.0815 3.53452C48.0397 3.49272 47.983 3.46924 47.9239 3.46924V3.47034ZM45.1046 3.47034H43.2309C43.1833 3.47016 43.1369 3.48522 43.0985 3.51332C43.0601 3.54141 43.0316 3.58107 43.0174 3.62648L41.5343 8.46289L39.904 3.62096C39.8891 3.57679 39.8606 3.53843 39.8227 3.5113C39.7848 3.48417 39.7393 3.46965 39.6927 3.46979H38.3851C38.3384 3.46962 38.2928 3.48412 38.2548 3.51124C38.2168 3.53837 38.1883 3.57675 38.1732 3.62096L36.5435 8.46289L35.0604 3.62648C35.0463 3.58096 35.0179 3.54119 34.9795 3.51299C34.941 3.48478 34.8946 3.46965 34.8469 3.46979H32.9727C32.9375 3.46985 32.9028 3.47823 32.8714 3.49424C32.8401 3.51025 32.813 3.53344 32.7923 3.56193C32.7716 3.59014 32.758 3.62291 32.7526 3.65747C32.7473 3.69204 32.7503 3.72739 32.7614 3.76055L35.5145 11.9487C35.5448 12.0392 35.6303 12.0999 35.7258 12.0999H37.2132C37.3092 12.0999 37.3942 12.0392 37.4246 11.9492L39.0389 7.16524L40.6527 11.9487C40.683 12.0392 40.7686 12.0999 40.864 12.0999H42.352C42.448 12.0999 42.533 12.0392 42.5633 11.9487L45.3164 3.76055C45.3275 3.72742 45.3306 3.69211 45.3253 3.65756C45.32 3.62302 45.3066 3.59023 45.2861 3.56193C45.2653 3.5334 45.2381 3.51019 45.2066 3.49417C45.1752 3.47816 45.1404 3.46981 45.1051 3.46979L45.1046 3.47034ZM32.0519 3.69269V11.8764C32.0519 11.9994 31.9526 12.0988 31.829 12.0988H30.1539C30.0949 12.0988 30.0383 12.0753 29.9965 12.0337C29.9547 11.992 29.9312 11.9354 29.931 11.8764V3.69214C29.931 3.5691 30.0304 3.46924 30.1539 3.46924H31.829C31.952 3.46924 32.0519 3.5691 32.0519 3.69269Z" fill="#FF8C00"/>
</g>
<defs>
<clipPath id="clip0_638_3586">
<rect width="48" height="17.6552" fill="white"/>
</clipPath>
</defs>
</svg>
