<svg width="44" height="22" viewBox="0 0 44 22" fill="none" xmlns="http://www.w3.org/2000/svg">
<g clip-path="url(#clip0_638_3517)">
<path d="M38.047 6.2799V11.6585H36.1185V7.88554H34.2614V11.6585H32.3327V6.27954H38.047V6.2799Z" fill="#1D1346"/>
<path fill-rule="evenodd" clip-rule="evenodd" d="M28.3719 11.8508C30.0983 11.8508 31.3804 10.7966 31.3804 9.1985C31.3804 7.65174 30.4345 6.64744 28.8536 6.64744C28.1241 6.64744 27.522 6.90319 27.0686 7.34445C27.1769 6.43239 27.9514 5.7665 28.8041 5.7665C29.0009 5.7665 30.4826 5.7634 30.4826 5.7634L31.3204 4.16675C31.3204 4.16675 29.4602 4.2089 28.5955 4.2089C26.6198 4.2432 25.2852 6.0316 25.2852 8.20375C25.2852 10.7343 26.5868 11.8508 28.3719 11.8508ZM28.3823 8.06165C29.0234 8.06165 29.4678 8.48114 29.4678 9.19834C29.4678 9.84385 29.0729 10.3757 28.3823 10.3772C27.7218 10.3772 27.2774 9.88435 27.2774 9.20934C27.2774 8.49195 27.7218 8.06165 28.3823 8.06165Z" fill="#1D1346"/>
<path d="M23.7155 9.85788C23.7155 9.85788 23.26 10.1193 22.5798 10.1688C21.7977 10.1919 21.1009 9.70003 21.1009 8.82608C21.1009 7.97358 21.7158 7.48499 22.5601 7.48499C23.0778 7.48499 23.7626 7.84229 23.7626 7.84229C23.7626 7.84229 24.2637 6.92654 24.5233 6.46859C24.048 6.10979 23.4149 5.91309 22.6785 5.91309C20.82 5.91309 19.3805 7.11979 19.3805 8.81524C19.3805 10.5323 20.7335 11.711 22.6785 11.6754C23.2221 11.6553 23.9722 11.4651 24.4293 11.1727L23.7155 9.85788Z" fill="#1D1346"/>
<path d="M0 4.78857L2.67535 9.55064V12.4554L0.00312971 17.2081L0 4.78857Z" fill="#5B57A2"/>
<path d="M10.2724 7.81781L12.7793 6.28771L17.9098 6.28296L10.2724 10.9422V7.81781Z" fill="#D90751"/>
<path d="M10.2581 4.76061L10.2722 11.0654L7.59064 9.42461V0L10.2581 4.76061Z" fill="#FAB718"/>
<path d="M17.9096 6.28301L12.779 6.28779L10.2581 4.76061L7.59064 0L17.9096 6.28301Z" fill="#ED6F26"/>
<path d="M10.2722 17.2347V14.1758L7.59064 12.5662L7.59212 22.0001L10.2722 17.2347Z" fill="#63B22F"/>
<path d="M12.7729 15.7183L2.67516 9.55064L0 4.78857L17.8988 15.7121L12.7729 15.7183Z" fill="#1487C9"/>
<path d="M7.59222 22L10.272 17.2346L12.7726 15.7184L17.8985 15.7122L7.59222 22Z" fill="#017F36"/>
<path d="M0.00317383 17.2083L7.6126 12.5663L5.05435 11.0032L2.67539 12.4556L0.00317383 17.2083Z" fill="#984995"/>
<path d="M21.1014 15.2783C21.0425 15.3531 20.965 15.4096 20.8721 15.4477C20.7767 15.4864 20.6746 15.5061 20.5716 15.5056C20.4692 15.507 20.3674 15.49 20.271 15.4554C20.1844 15.4241 20.1053 15.3753 20.0387 15.312C19.9728 15.2487 19.9211 15.1722 19.887 15.0876C19.85 14.995 19.8315 14.896 19.8326 14.7963C19.8326 14.6973 19.8498 14.6056 19.8853 14.5187C19.9193 14.4317 19.9689 14.357 20.0309 14.2943C20.093 14.2304 20.1673 14.1816 20.2509 14.1435C20.3361 14.1068 20.4291 14.087 20.5313 14.087C20.6414 14.087 20.7436 14.1007 20.8365 14.1281C20.9295 14.1556 21.0085 14.2014 21.0735 14.2656L20.9605 14.4562C20.9058 14.4069 20.8414 14.3694 20.7714 14.3462C20.7048 14.3249 20.6353 14.3141 20.5654 14.3143C20.5035 14.3143 20.4446 14.3264 20.3873 14.3493C20.3309 14.372 20.2794 14.4052 20.2355 14.4471C20.1906 14.4902 20.1552 14.5421 20.1316 14.5996C20.1053 14.659 20.0929 14.7246 20.0929 14.7978C20.0929 14.8726 20.1068 14.9397 20.1331 14.9976C20.1596 15.0572 20.1951 15.1076 20.2401 15.1501C20.285 15.193 20.3376 15.2249 20.398 15.2464C20.4586 15.2693 20.5221 15.2799 20.5902 15.2799C20.6738 15.2799 20.7498 15.2631 20.8148 15.231C20.8792 15.2 20.9371 15.1571 20.9853 15.1045L21.1014 15.2783ZM21.4205 15.4735V14.116H21.6654V15.1274L22.4616 14.116H22.7064V15.4737H22.4616V14.4623L21.6654 15.4737L21.4205 15.4735ZM24.3284 15.2783C24.2681 15.3537 24.1891 15.4121 24.0992 15.4477C24.0037 15.4864 23.9016 15.506 23.7985 15.5056C23.6962 15.507 23.5944 15.49 23.4981 15.4554C23.4115 15.4241 23.3323 15.3753 23.2656 15.312C23.1997 15.2487 23.148 15.1722 23.1139 15.0876C23.0769 14.995 23.0584 14.896 23.0595 14.7963C23.0595 14.6973 23.0767 14.6056 23.1122 14.5187C23.1464 14.4317 23.196 14.357 23.2578 14.2943C23.3199 14.2304 23.3942 14.1816 23.4778 14.1435C23.5661 14.1048 23.6618 14.0855 23.7582 14.087C23.8683 14.087 23.9705 14.1007 24.0635 14.1281C24.1564 14.1556 24.2354 14.2014 24.3006 14.2656L24.1873 14.4562C24.1328 14.4069 24.0684 14.3694 23.9985 14.3462C23.9319 14.3249 23.8624 14.3141 23.7925 14.3143C23.6694 14.3147 23.5512 14.3623 23.4624 14.4471C23.4179 14.4905 23.3826 14.5424 23.3585 14.5996C23.3322 14.659 23.3199 14.7246 23.3199 14.7978C23.3199 14.8726 23.3339 14.9397 23.3602 14.9976C23.3865 15.0572 23.4221 15.1076 23.467 15.1501C23.5119 15.193 23.5647 15.2249 23.6251 15.2464C23.6855 15.2677 23.749 15.2799 23.8171 15.2799C23.9009 15.2799 23.9753 15.2631 24.0417 15.231C24.1061 15.2 24.164 15.1571 24.2122 15.1045L24.3284 15.2783ZM24.4539 14.116H25.7102V14.357H25.2053V15.4735H24.9604V14.357H24.4554V14.116H24.4539Z" fill="#1D1346"/>
<path fill-rule="evenodd" clip-rule="evenodd" d="M26.8534 15.4602C26.9464 15.4312 27.0254 15.3868 27.0935 15.326L27.0191 15.1368C26.9742 15.1765 26.9138 15.2101 26.8411 15.2376C26.7682 15.2651 26.6861 15.2787 26.5962 15.2787C26.4615 15.2787 26.3499 15.2436 26.2615 15.172C26.1733 15.1001 26.1253 14.9996 26.1145 14.8713H27.1741C27.185 14.824 27.1896 14.7706 27.1896 14.7081C27.1896 14.615 27.1725 14.5312 27.1384 14.4549C27.1067 14.3809 27.0604 14.3139 27.0022 14.258C26.9432 14.2027 26.8736 14.1597 26.7977 14.1315C26.7181 14.1008 26.6335 14.0853 26.5482 14.0857C26.4335 14.0857 26.3328 14.1055 26.2446 14.1422C26.1612 14.1771 26.0858 14.2285 26.0229 14.2932C25.9619 14.3576 25.915 14.434 25.8852 14.5175C25.8525 14.6063 25.8362 14.7004 25.8372 14.795C25.8372 14.9019 25.8558 14.9994 25.8898 15.0865C25.923 15.1709 25.9737 15.2473 26.0386 15.3107C26.1021 15.3731 26.1794 15.4206 26.2709 15.4541C26.3689 15.4887 26.4723 15.5057 26.5762 15.5043C26.6703 15.5038 26.7638 15.4887 26.8534 15.4602ZM26.2337 14.4152C26.3096 14.3466 26.4103 14.313 26.5373 14.313C26.6566 14.313 26.7527 14.3451 26.8225 14.4093C26.8923 14.4733 26.9293 14.5618 26.9356 14.6746H26.099C26.1108 14.5747 26.1587 14.4824 26.2337 14.4152Z" fill="#1D1346"/>
<path d="M27.5228 14.116H27.7459L28.2757 14.7888L28.7776 14.116H28.9945V15.4738H28.7498V14.4838L28.2726 15.1137H28.2632L27.7676 14.4836V15.4736H27.5228V14.116Z" fill="#1D1346"/>
<path fill-rule="evenodd" clip-rule="evenodd" d="M29.6605 14.1207C29.5862 14.14 29.5152 14.1703 29.4499 14.2106L29.5149 14.4031C29.5707 14.3756 29.6264 14.3526 29.6822 14.3328C29.738 14.3129 29.8093 14.3037 29.8945 14.3037C29.9626 14.3037 30.0169 14.3145 30.0587 14.3358C30.1005 14.3556 30.1314 14.3862 30.1531 14.4229C30.1749 14.4595 30.1889 14.5052 30.1966 14.5585C30.2043 14.6119 30.2075 14.6698 30.2075 14.7325C30.1573 14.6977 30.1002 14.6743 30.0401 14.6638C29.982 14.6522 29.9229 14.6461 29.8636 14.6454C29.7907 14.6454 29.7225 14.6562 29.6574 14.6744C29.5924 14.6927 29.5366 14.7202 29.4917 14.7569C29.4458 14.7935 29.4088 14.8398 29.3832 14.8926C29.3559 14.9503 29.3422 15.0134 29.3429 15.0772C29.3429 15.2099 29.3817 15.3137 29.4591 15.387C29.5366 15.4602 29.6388 15.4966 29.7658 15.4966C29.8805 15.4966 29.972 15.4768 30.0416 15.4372C30.1113 15.3975 30.1671 15.3518 30.2075 15.2999V15.4754H30.4367V14.6425C30.4367 14.4654 30.398 14.3283 30.319 14.232C30.2415 14.1359 30.1036 14.0872 29.9085 14.0872C29.8216 14.0872 29.7395 14.0993 29.6605 14.1207ZM30.0697 15.2207C30.014 15.2603 29.9411 15.2785 29.8512 15.2785C29.7722 15.2785 29.7102 15.2587 29.6669 15.2205C29.6235 15.1809 29.6018 15.1291 29.6018 15.0649C29.6018 15.0269 29.6095 14.9949 29.6266 14.9659C29.6437 14.9369 29.6669 14.914 29.6933 14.8957C29.7221 14.8765 29.754 14.8625 29.7877 14.8544C29.8234 14.8453 29.859 14.8407 29.8961 14.8407C30.0171 14.8407 30.1208 14.8696 30.206 14.9307V15.103C30.1658 15.1478 30.12 15.1875 30.0697 15.2207ZM32.5982 13.6386C32.6477 13.6158 32.6939 13.5777 32.7373 13.5212L32.604 13.3306C32.57 13.3764 32.5315 13.4083 32.4878 13.4252C32.4419 13.4431 32.394 13.4564 32.3454 13.4648L32.299 13.473C32.2587 13.48 32.2154 13.4877 32.1689 13.4954C32.0942 13.5091 32.0214 13.5316 31.952 13.5625C31.8419 13.6098 31.7537 13.6738 31.6871 13.7546C31.6204 13.8355 31.5678 13.9269 31.5321 14.0278C31.4959 14.1299 31.4715 14.2358 31.4593 14.3435C31.4468 14.4535 31.4408 14.5585 31.4408 14.6592C31.4408 14.789 31.4577 14.9063 31.4917 15.0115C31.526 15.117 31.5739 15.2053 31.6374 15.277C31.7009 15.3503 31.7769 15.4053 31.8667 15.4449C31.9566 15.4845 32.0573 15.5043 32.1703 15.5043C32.2742 15.5043 32.3704 15.4845 32.4571 15.4479C32.5406 15.4126 32.6163 15.3614 32.68 15.297C32.7421 15.2343 32.7916 15.1595 32.8256 15.0757C32.8612 14.9917 32.8783 14.9017 32.8783 14.8071C32.8783 14.705 32.8628 14.6121 32.8334 14.5296C32.8062 14.4509 32.7631 14.3787 32.7065 14.3176C32.6496 14.2575 32.5804 14.2106 32.5034 14.1801C32.4186 14.1469 32.3281 14.1303 32.237 14.1314C32.1781 14.1314 32.1208 14.1391 32.065 14.1543C32.0108 14.1695 31.9587 14.1916 31.91 14.2199C31.8628 14.2468 31.8195 14.2802 31.7815 14.3189C31.7443 14.3572 31.7134 14.3999 31.6917 14.4487H31.6854C31.6902 14.3862 31.6979 14.3222 31.7117 14.2566C31.7257 14.1909 31.7458 14.1282 31.7723 14.0688C31.7986 14.0094 31.8327 13.9559 31.8745 13.9071C31.9193 13.8579 31.9743 13.8189 32.0356 13.7927C32.103 13.7608 32.1744 13.7377 32.2478 13.7242L32.2965 13.7154C32.3449 13.7066 32.3911 13.6981 32.4354 13.689C32.4943 13.6769 32.5483 13.6613 32.5982 13.6386ZM31.7366 14.943C31.7126 14.8659 31.7011 14.7856 31.7025 14.705C31.7129 14.6588 31.7318 14.6148 31.7583 14.5754C31.7846 14.5341 31.8187 14.4977 31.859 14.4654C31.95 14.3944 32.0625 14.3563 32.1781 14.3572C32.3222 14.3572 32.4306 14.4014 32.5066 14.4885C32.5826 14.5769 32.6198 14.6867 32.6198 14.8194C32.6198 14.885 32.6072 14.9446 32.5855 14.9994C32.5648 15.0535 32.5331 15.1029 32.4927 15.1445C32.4522 15.1862 32.4037 15.2193 32.3502 15.242C32.2944 15.2664 32.2339 15.2787 32.1657 15.2787C32.0976 15.2787 32.0356 15.2649 31.9783 15.2374C31.9214 15.2105 31.8711 15.1714 31.831 15.123C31.7891 15.0691 31.7571 15.0081 31.7366 14.943ZM34.7561 14.1161H34.5112V15.4739H34.7561V14.1161ZM33.2316 14.1161H33.4762V14.5235H33.7027C33.8094 14.5235 33.8961 14.5373 33.9657 14.5631C34.0356 14.5891 34.0916 14.6242 34.1333 14.6669C34.175 14.7096 34.2045 14.76 34.2216 14.8163C34.2384 14.8728 34.2478 14.9307 34.2478 14.9917C34.2478 15.0528 34.2384 15.1109 34.2184 15.1688C34.1999 15.2268 34.1673 15.277 34.1239 15.3228C34.0806 15.3687 34.0217 15.4053 33.9473 15.4328C33.8729 15.4602 33.7829 15.4754 33.6745 15.4754H33.23V14.1161H33.2316ZM33.4762 14.7507V15.248H33.6545C33.7771 15.248 33.8638 15.2268 33.9133 15.1839C33.9628 15.1412 33.9877 15.0803 33.9877 14.9994C33.9877 14.9169 33.9612 14.8546 33.9117 14.8117C33.8606 14.769 33.7755 14.7475 33.6577 14.7475H33.4762V14.7507Z" fill="#1D1346"/>
<path d="M36.3751 15.2783C36.3162 15.3531 36.2385 15.4096 36.1457 15.4477C36.0502 15.4864 35.948 15.506 35.8451 15.5056C35.7426 15.507 35.641 15.49 35.5446 15.4554C35.4579 15.4241 35.3789 15.3753 35.3123 15.312C35.2463 15.2486 35.1945 15.1722 35.1602 15.0876C35.1233 14.995 35.1052 14.896 35.1062 14.7963C35.1062 14.6973 35.123 14.6056 35.1589 14.5187C35.1929 14.4317 35.2424 14.357 35.3045 14.2943C35.3666 14.2304 35.4407 14.1816 35.5245 14.1435C35.6128 14.1047 35.7083 14.0855 35.8047 14.087C35.9147 14.087 36.0172 14.1007 36.1101 14.1281C36.2029 14.1556 36.2819 14.2014 36.3469 14.2656L36.234 14.4562C36.1793 14.4069 36.1149 14.3694 36.0447 14.3462C35.9784 14.3249 35.9089 14.3141 35.839 14.3143C35.7769 14.3143 35.718 14.3264 35.6607 14.3493C35.6044 14.372 35.5526 14.4052 35.509 14.4471C35.4643 14.4904 35.4291 14.5423 35.4051 14.5996C35.3789 14.659 35.3666 14.7246 35.3666 14.7978C35.3666 14.8726 35.3802 14.9397 35.4067 14.9976C35.4329 15.0572 35.4685 15.1076 35.5135 15.1501C35.5585 15.193 35.6112 15.2249 35.6714 15.2464C35.7322 15.2677 35.7956 15.2799 35.8639 15.2799C35.9474 15.2799 36.0218 15.2631 36.0884 15.231C36.1528 15.2 36.2107 15.1571 36.2589 15.1045L36.3751 15.2783ZM36.5003 14.116H37.7569V14.357H37.2515V15.4735H37.0069V14.357H36.5019V14.116H36.5003Z" fill="#1D1346"/>
<path fill-rule="evenodd" clip-rule="evenodd" d="M38.268 14.1162H38.0231V16.0778H38.268V15.4112C38.3175 15.4433 38.3764 15.4662 38.4447 15.4814C38.5126 15.4967 38.5841 15.5042 38.6569 15.5042C38.7653 15.5042 38.863 15.4844 38.9513 15.4479C39.0361 15.4118 39.1128 15.3595 39.1775 15.2939C39.2409 15.2281 39.2891 15.1518 39.3231 15.0618C39.357 14.972 39.3742 14.8757 39.3742 14.7736C39.3742 14.6728 39.3587 14.5798 39.3292 14.4958C39.3014 14.4161 39.2584 14.3426 39.2021 14.2793C39.1471 14.2177 39.0788 14.1692 39.0025 14.1374C38.9187 14.1017 38.8284 14.084 38.7375 14.0855C38.6414 14.0855 38.5518 14.1039 38.4664 14.1405C38.3813 14.1772 38.3146 14.2212 38.268 14.2762V14.1162ZM38.4385 14.3679C38.5084 14.3312 38.5841 14.3129 38.6663 14.3129C38.7375 14.3129 38.8012 14.3235 38.8585 14.3464C38.9145 14.3693 38.9607 14.4014 38.9995 14.4441C39.038 14.4869 39.0678 14.5358 39.0862 14.5936C39.1063 14.6515 39.1157 14.7142 39.1157 14.7828C39.1157 14.8561 39.1031 14.9215 39.0817 14.9826C39.0613 15.0405 39.029 15.0935 38.9869 15.1382C38.9449 15.1825 38.8934 15.2173 38.8368 15.2404C38.7734 15.2668 38.7055 15.2797 38.6369 15.2785C38.5705 15.2785 38.5084 15.271 38.4495 15.2558C38.3848 15.2383 38.3237 15.2104 38.2684 15.1733V14.5004C38.3114 14.4487 38.369 14.4045 38.4385 14.3679ZM41.252 14.116H41.007V15.4737H41.252V14.116ZM39.7259 14.116H39.9708V14.5233H40.1966C40.3037 14.5233 40.3904 14.5371 40.4603 14.5629C40.5298 14.589 40.5858 14.624 40.6275 14.6667C40.6693 14.7094 40.6987 14.7598 40.7159 14.8161C40.7327 14.8726 40.7421 14.9305 40.7421 14.9916C40.7421 15.0526 40.7327 15.1107 40.7126 15.1687C40.6942 15.2266 40.6615 15.2768 40.6182 15.3227C40.5748 15.3685 40.5159 15.4052 40.4415 15.4327C40.3671 15.46 40.2775 15.4752 40.1691 15.4752H39.7242V14.116H39.7259ZM39.9724 14.7505V15.2479H40.1507C40.2726 15.2479 40.3597 15.2266 40.4092 15.1837C40.4587 15.141 40.4836 15.0801 40.4836 14.9993C40.4836 14.9168 40.4574 14.8544 40.4079 14.8115C40.3564 14.7688 40.2713 14.7474 40.1536 14.7474H39.9724V14.7505Z" fill="#1D1346"/>
<path d="M42.426 14.7705L42.9498 15.4738H42.6492L42.2448 14.9245L41.8343 15.4738H41.5492L42.0698 14.7826L41.5803 14.116H41.8809L42.2542 14.6286L42.6337 14.116H42.9187L42.426 14.7705ZM20.9201 17.1518H20.1687V18.2837H19.9239V16.9261H21.1647V18.2837H20.9201V17.1518ZM22.5543 17.167H22.0711L22.0554 17.3958C22.0385 17.5896 22.0153 17.7453 21.9827 17.8641C21.9501 17.9832 21.9098 18.0747 21.8634 18.1387C21.817 18.2029 21.7627 18.247 21.7006 18.2685C21.6367 18.2916 21.569 18.303 21.5009 18.302L21.4823 18.067C21.5086 18.0685 21.5396 18.0624 21.5736 18.0472C21.6079 18.032 21.6419 17.9984 21.6743 17.9482C21.7069 17.8961 21.7364 17.823 21.7627 17.7284C21.789 17.6323 21.8062 17.5073 21.8153 17.35L21.8402 16.9274H22.7992V18.2852H22.5543V17.167Z" fill="#1D1346"/>
<path fill-rule="evenodd" clip-rule="evenodd" d="M23.4595 16.9293C23.3803 16.9506 23.309 16.981 23.2486 17.0191L23.3138 17.2115C23.3696 17.184 23.4254 17.161 23.481 17.1412C23.5368 17.1214 23.6082 17.1123 23.6933 17.1123C23.7616 17.1123 23.8157 17.1229 23.8575 17.1442C23.8995 17.1642 23.9304 17.1946 23.9521 17.2313C23.9736 17.2679 23.9876 17.3138 23.9954 17.3669C24.0031 17.4205 24.0062 17.4784 24.0062 17.5409C23.9561 17.5062 23.899 17.4828 23.8389 17.4723C23.7807 17.4608 23.7216 17.4547 23.6623 17.454C23.5896 17.454 23.5213 17.4646 23.4563 17.483C23.3912 17.5013 23.3354 17.5288 23.2904 17.5655C23.2446 17.6021 23.2076 17.6484 23.182 17.7011C23.1548 17.7589 23.1411 17.822 23.1419 17.8858C23.1419 18.0183 23.1805 18.1223 23.2581 18.1954C23.3354 18.2686 23.4377 18.3052 23.5648 18.3052C23.6795 18.3052 23.7708 18.2854 23.8405 18.2456C23.9101 18.206 23.9659 18.1602 24.0062 18.1083V18.2838H24.2356V17.4509C24.2356 17.274 24.1968 17.1367 24.1178 17.0406C24.0403 16.9443 23.9024 16.8958 23.7072 16.8958C23.6235 16.8958 23.5402 16.9072 23.4595 16.9293ZM23.87 18.0289C23.8144 18.0687 23.7415 18.0871 23.6517 18.0871C23.571 18.0871 23.5106 18.0673 23.4674 18.0289C23.4239 17.9893 23.4022 17.9375 23.4022 17.8735C23.4022 17.8353 23.4099 17.8033 23.427 17.7743C23.444 17.7453 23.4674 17.7224 23.4937 17.7041C23.52 17.6857 23.5524 17.672 23.5882 17.6628C23.6235 17.6537 23.66 17.6492 23.6966 17.6493C23.8173 17.6493 23.9212 17.6782 24.0064 17.7391V17.9114C23.9662 17.9562 23.9203 17.9958 23.87 18.0289Z" fill="#1D1346"/>
<path d="M24.4755 16.9263H25.7319V17.1672H25.2268V18.2838H24.9821V17.1674H24.4771V16.9263H24.4755Z" fill="#1D1346"/>
<path fill-rule="evenodd" clip-rule="evenodd" d="M26.8754 18.2701C26.9684 18.2411 27.0474 18.1968 27.1155 18.1359L27.0411 17.9467C26.9962 17.9865 26.9358 18.02 26.8629 18.0475C26.7902 18.075 26.708 18.0886 26.6182 18.0886C26.4835 18.0886 26.3719 18.0536 26.2835 17.9819C26.1952 17.9102 26.1473 17.8096 26.1364 17.6812H27.1961C27.2068 17.6341 27.2116 17.5806 27.2116 17.5181C27.2116 17.4251 27.1944 17.3411 27.1604 17.2649C27.1287 17.1909 27.0823 17.1239 27.024 17.0682C26.9651 17.0127 26.8956 16.9696 26.8196 16.9415C26.7401 16.9108 26.6555 16.8952 26.5702 16.8956C26.4555 16.8956 26.3548 16.9154 26.2666 16.9521C26.1832 16.987 26.1077 17.0384 26.0449 17.1032C25.9839 17.1676 25.937 17.244 25.9071 17.3274C25.8744 17.4163 25.8581 17.5103 25.859 17.605C25.859 17.7118 25.8776 17.8094 25.9117 17.8965C25.9459 17.9834 25.9969 18.0582 26.0604 18.1207C26.1239 18.1832 26.2014 18.2305 26.2929 18.264C26.3908 18.2987 26.4941 18.3158 26.598 18.3145C26.6895 18.3145 26.7824 18.2991 26.8754 18.2701ZM26.2543 17.2236C26.3301 17.1551 26.4308 17.1215 26.5578 17.1215C26.6788 17.1215 26.7732 17.1551 26.843 17.2176C26.9126 17.2817 26.9498 17.3701 26.956 17.483H26.1195C26.1313 17.3832 26.1792 17.291 26.2543 17.2236ZM27.3309 16.9263H27.6407L28.1131 17.5808L27.6081 18.2838H27.3077L27.8373 17.5806L27.3309 16.9263ZM28.1735 16.9263H28.4184V18.2838H28.1735V16.9263ZM29.2936 18.2838L28.7545 17.5806L29.258 16.9261H28.9543L28.4787 17.5806L28.99 18.2838H29.2936ZM30.4122 18.2701C30.5051 18.2411 30.5841 18.1968 30.6522 18.1359L30.5778 17.9467C30.5329 17.9865 30.4725 18.02 30.3998 18.0475C30.3269 18.075 30.2448 18.0886 30.155 18.0886C30.0202 18.0886 29.9087 18.0536 29.8203 17.9819C29.7321 17.9102 29.684 17.8096 29.6732 17.6812H30.7329C30.7437 17.6341 30.7483 17.5806 30.7483 17.5181C30.7483 17.4251 30.7314 17.3411 30.6971 17.2649C30.6654 17.1909 30.6191 17.124 30.5609 17.0682C30.502 17.0127 30.4324 16.9696 30.3564 16.9415C30.2768 16.9107 30.1922 16.8952 30.1069 16.8956C29.9924 16.8956 29.8917 16.9154 29.8034 16.9521C29.72 16.987 29.6447 17.0384 29.5819 17.1032C29.5207 17.1675 29.4737 17.2439 29.444 17.3274C29.4112 17.4163 29.395 17.5103 29.3959 17.605C29.3959 17.7118 29.4145 17.8094 29.4486 17.8965C29.4826 17.9834 29.5338 18.0582 29.5973 18.1207C29.6608 18.1832 29.7382 18.2305 29.8297 18.264C29.9276 18.2987 30.031 18.3158 30.1349 18.3145C30.2291 18.3138 30.3226 18.2988 30.4122 18.2701ZM29.791 17.2236C29.8671 17.1551 29.9677 17.1215 30.0948 17.1215C30.2141 17.1215 30.31 17.1551 30.3798 17.2176C30.4495 17.2817 30.4867 17.3701 30.4928 17.483H29.6562C29.6681 17.3832 29.716 17.291 29.791 17.2236ZM31.7416 16.4701C31.5974 16.4701 31.5184 16.3907 31.5061 16.2322H31.2752C31.2752 16.293 31.2861 16.348 31.3061 16.3999C31.3264 16.4518 31.3559 16.496 31.3945 16.5326C31.4332 16.5693 31.4829 16.5983 31.5402 16.621C31.5974 16.6439 31.664 16.6546 31.7399 16.6546C31.8097 16.6546 31.8717 16.6439 31.9275 16.621C31.9833 16.5997 32.0297 16.5693 32.07 16.5326C32.1087 16.496 32.1398 16.4518 32.1613 16.3999C32.183 16.348 32.1939 16.293 32.1939 16.2322H31.9647C31.9538 16.3907 31.8778 16.4701 31.7416 16.4701ZM31.0799 16.9261V18.2838H31.3248L32.121 17.2724V18.2838H32.3659V16.9261H32.121L31.3248 17.9375V16.9261H31.0799Z" fill="#1D1346"/>
</g>
<defs>
<clipPath id="clip0_638_3517">
<rect width="44" height="22" fill="white"/>
</clipPath>
</defs>
</svg>
