<svg width="46" height="18" viewBox="0 0 46 18" fill="none" xmlns="http://www.w3.org/2000/svg">
<path d="M8.98443 0C4.24831 0 0.368459 3.64556 0 8.27807L4.83213 10.2725C5.24146 9.99273 5.73641 9.82973 6.26834 9.82973C6.31635 9.82973 6.3637 9.83102 6.41041 9.83358L8.55954 6.72385V6.68021C8.55954 4.80898 10.0846 3.2862 11.9593 3.2862C13.8341 3.2862 15.3592 4.80898 15.3592 6.68021C15.3592 8.55144 13.8341 10.0749 11.9593 10.0749C11.9334 10.0749 11.9081 10.0742 11.8822 10.0736L8.81707 12.256C8.81901 12.2965 8.82031 12.3369 8.82031 12.3767C8.82031 13.782 7.67536 14.9249 6.26834 14.9249C5.03323 14.9249 3.99986 14.0445 3.76633 12.8791L0.310076 11.4526C1.38042 15.2304 4.85743 18 8.98443 18C13.9638 18 18 13.9701 18 9C18 4.0293 13.9638 0 8.98443 0ZM5.64975 13.656L4.54242 13.1991C4.73833 13.6072 5.07825 13.9486 5.52909 14.136C6.50343 14.5416 7.62697 14.0802 8.03305 13.1067C8.22961 12.6357 8.23091 12.1159 8.0363 11.6436C7.84169 11.1713 7.47388 10.803 7.00228 10.6066C6.53327 10.4121 6.03118 10.4192 5.59007 10.5854L6.73437 11.0577C7.45312 11.3567 7.79304 12.1807 7.49334 12.8981C7.19429 13.6156 6.3685 13.955 5.64975 13.656ZM14.2249 6.68028C14.2249 5.43343 13.2083 4.41825 11.9596 4.41825C10.7102 4.41825 9.69372 5.43343 9.69372 6.68028C9.69372 7.92712 10.7102 8.94167 11.9596 8.94167C13.2083 8.94167 14.2249 7.92712 14.2249 6.68028ZM10.2613 6.67643C10.2613 5.73825 11.0235 4.97782 11.9629 4.97782C12.9028 4.97782 13.665 5.73825 13.665 6.67643C13.665 7.61461 12.9028 8.37504 11.9629 8.37504C11.0235 8.37504 10.2613 7.61461 10.2613 6.67643Z" fill="#23282E"/>
<path d="M23.208 8.032L22.264 8.712C22.392 8.97867 22.5707 9.224 22.8 9.448C23.0293 9.672 23.2987 9.85067 23.608 9.984C23.9227 10.112 24.2613 10.176 24.624 10.176C24.8853 10.176 25.1387 10.136 25.384 10.056C25.6347 9.98133 25.856 9.86933 26.048 9.72C26.2453 9.57067 26.4 9.38667 26.512 9.168C26.6293 8.944 26.688 8.69067 26.688 8.408C26.688 8.17333 26.6507 7.96533 26.576 7.784C26.5013 7.60267 26.3973 7.44267 26.264 7.304C26.136 7.16533 25.9867 7.048 25.816 6.952C25.6453 6.85067 25.4613 6.76267 25.264 6.688C25.0027 6.59733 24.7787 6.512 24.592 6.432C24.4107 6.352 24.2693 6.264 24.168 6.168C24.072 6.072 24.024 5.96 24.024 5.832C24.024 5.70933 24.0747 5.608 24.176 5.528C24.2773 5.44267 24.424 5.4 24.616 5.4C24.76 5.4 24.8933 5.42933 25.016 5.488C25.144 5.54133 25.2587 5.61867 25.36 5.72C25.4667 5.816 25.56 5.93067 25.64 6.064L26.672 5.488C26.576 5.296 26.4373 5.10667 26.256 4.92C26.0747 4.73333 25.8453 4.57867 25.568 4.456C25.296 4.33333 24.9733 4.272 24.6 4.272C24.2373 4.272 23.9067 4.336 23.608 4.464C23.3147 4.58667 23.08 4.768 22.904 5.008C22.7333 5.248 22.648 5.53333 22.648 5.864C22.648 6.14133 22.6987 6.37867 22.8 6.576C22.9013 6.768 23.0293 6.93333 23.184 7.072C23.3387 7.20533 23.5013 7.31467 23.672 7.4C23.848 7.48533 24.0027 7.552 24.136 7.6C24.408 7.70133 24.6267 7.792 24.792 7.872C24.9573 7.952 25.0773 8.03733 25.152 8.128C25.2267 8.21333 25.264 8.328 25.264 8.472C25.264 8.64267 25.2 8.77867 25.072 8.88C24.944 8.976 24.7813 9.024 24.584 9.024C24.3973 9.024 24.2187 8.984 24.048 8.904C23.8827 8.824 23.728 8.70933 23.584 8.56C23.4453 8.41067 23.32 8.23467 23.208 8.032ZM27.04 6.32V7.32H29.504V6.32H27.04ZM27.688 5.04V10H28.848V5.04H27.688ZM31.8909 10.08C32.3602 10.08 32.7575 9.98933 33.0829 9.808C33.4135 9.62667 33.6749 9.35467 33.8669 8.992L32.7869 8.728C32.6962 8.888 32.5735 9.008 32.4189 9.088C32.2695 9.168 32.0882 9.208 31.8749 9.208C31.6882 9.208 31.5309 9.168 31.4029 9.088C31.2749 9.00267 31.1789 8.88 31.1149 8.72C31.0509 8.56 31.0189 8.368 31.0189 8.144C31.0242 7.89867 31.0562 7.696 31.1149 7.536C31.1789 7.37067 31.2722 7.248 31.3949 7.168C31.5175 7.088 31.6695 7.048 31.8509 7.048C31.9949 7.048 32.1202 7.08 32.2269 7.144C32.3335 7.208 32.4162 7.29867 32.4749 7.416C32.5335 7.53333 32.5629 7.672 32.5629 7.832C32.5629 7.86933 32.5522 7.91733 32.5309 7.976C32.5149 8.02933 32.4935 8.07467 32.4669 8.112L32.7549 7.744H30.4829V8.416H33.8429C33.8535 8.37867 33.8589 8.33333 33.8589 8.28C33.8589 8.22133 33.8589 8.16267 33.8589 8.104C33.8589 7.70933 33.7815 7.37333 33.6269 7.096C33.4722 6.81867 33.2482 6.608 32.9549 6.464C32.6615 6.31467 32.3015 6.24 31.8749 6.24C31.4482 6.24 31.0775 6.31733 30.7629 6.472C30.4535 6.62667 30.2162 6.848 30.0509 7.136C29.8855 7.424 29.8029 7.76533 29.8029 8.16C29.8029 8.54933 29.8882 8.888 30.0589 9.176C30.2295 9.464 30.4695 9.688 30.7789 9.848C31.0935 10.0027 31.4642 10.08 31.8909 10.08ZM35.5408 8.848C35.5408 8.75733 35.5621 8.68267 35.6048 8.624C35.6475 8.56 35.7115 8.512 35.7968 8.48C35.8821 8.448 35.9968 8.432 36.1408 8.432C36.3275 8.432 36.5035 8.45867 36.6688 8.512C36.8395 8.56 36.9888 8.632 37.1168 8.728V8.192C37.0528 8.12267 36.9568 8.056 36.8288 7.992C36.7008 7.928 36.5461 7.87467 36.3648 7.832C36.1888 7.78933 35.9888 7.768 35.7648 7.768C35.3061 7.768 34.9515 7.872 34.7008 8.08C34.4501 8.28267 34.3248 8.56 34.3248 8.912C34.3248 9.16267 34.3835 9.376 34.5008 9.552C34.6235 9.728 34.7835 9.86133 34.9808 9.952C35.1835 10.0373 35.4021 10.08 35.6368 10.08C35.8715 10.08 36.0901 10.04 36.2928 9.96C36.4955 9.87467 36.6608 9.752 36.7888 9.592C36.9168 9.42667 36.9808 9.22667 36.9808 8.992L36.8528 8.512C36.8528 8.68267 36.8155 8.82667 36.7408 8.944C36.6661 9.06133 36.5701 9.14933 36.4528 9.208C36.3355 9.26667 36.2075 9.296 36.0688 9.296C35.9728 9.296 35.8848 9.28 35.8048 9.248C35.7248 9.21067 35.6608 9.16 35.6128 9.096C35.5648 9.02667 35.5408 8.944 35.5408 8.848ZM35.0048 7.448C35.0581 7.416 35.1435 7.376 35.2608 7.328C35.3781 7.27467 35.5141 7.22933 35.6688 7.192C35.8288 7.15467 35.9915 7.136 36.1568 7.136C36.2688 7.136 36.3675 7.14667 36.4528 7.168C36.5435 7.18933 36.6181 7.224 36.6768 7.272C36.7355 7.32 36.7781 7.37867 36.8048 7.448C36.8368 7.512 36.8528 7.58933 36.8528 7.68V10H38.0128V7.408C38.0128 7.152 37.9381 6.936 37.7888 6.76C37.6395 6.584 37.4368 6.45067 37.1808 6.36C36.9248 6.264 36.6341 6.216 36.3088 6.216C35.9621 6.216 35.6421 6.26133 35.3488 6.352C35.0555 6.44267 34.8048 6.53867 34.5968 6.64L35.0048 7.448ZM44.5333 7.632C44.5333 7.33333 44.496 7.08 44.4213 6.872C44.3466 6.664 44.224 6.50667 44.0533 6.4C43.888 6.288 43.6613 6.232 43.3733 6.232C43.1226 6.232 42.8986 6.28533 42.7013 6.392C42.504 6.49867 42.3386 6.648 42.2053 6.84C42.1306 6.64267 42.008 6.49333 41.8373 6.392C41.6666 6.28533 41.4373 6.232 41.1493 6.232C40.8986 6.232 40.6826 6.288 40.5013 6.4C40.3253 6.512 40.1866 6.66667 40.0853 6.864V6.32H38.9173V10H40.0853V7.76C40.0853 7.61067 40.1066 7.48533 40.1493 7.384C40.1973 7.28267 40.2613 7.208 40.3413 7.16C40.4266 7.10667 40.5226 7.08 40.6293 7.08C40.7946 7.08 40.912 7.13867 40.9813 7.256C41.056 7.368 41.0933 7.536 41.0933 7.76V10H42.3093V7.76C42.3093 7.61067 42.3306 7.48533 42.3733 7.384C42.4213 7.28267 42.4853 7.208 42.5653 7.16C42.6506 7.10667 42.7466 7.08 42.8533 7.08C43.0186 7.08 43.136 7.13867 43.2053 7.256C43.28 7.368 43.3173 7.536 43.3173 7.76V10H44.5333V7.632ZM22.664 13.6C22.664 13.4 22.708 13.2267 22.796 13.08C22.8867 12.9307 23.004 12.816 23.148 12.736C23.292 12.6533 23.4493 12.612 23.62 12.612C23.7533 12.612 23.8733 12.6293 23.98 12.664C24.0893 12.6987 24.1867 12.7467 24.272 12.808C24.3573 12.8667 24.432 12.9333 24.496 13.008V12.448C24.3813 12.3493 24.2547 12.2747 24.116 12.224C23.98 12.1733 23.8093 12.148 23.604 12.148C23.3987 12.148 23.2067 12.184 23.028 12.256C22.852 12.3253 22.6987 12.4253 22.568 12.556C22.4373 12.684 22.3347 12.8373 22.26 13.016C22.188 13.192 22.152 13.3867 22.152 13.6C22.152 13.8107 22.188 14.0053 22.26 14.184C22.3347 14.36 22.4373 14.5133 22.568 14.644C22.6987 14.7747 22.852 14.8747 23.028 14.944C23.2067 15.0133 23.3987 15.048 23.604 15.048C23.8093 15.048 23.98 15.0227 24.116 14.972C24.2547 14.9213 24.3813 14.848 24.496 14.752V14.188C24.432 14.2653 24.3573 14.3347 24.272 14.396C24.1867 14.4547 24.0893 14.5013 23.98 14.536C23.8733 14.5707 23.7533 14.588 23.62 14.588C23.4493 14.588 23.292 14.5467 23.148 14.464C23.004 14.3813 22.8867 14.2667 22.796 14.12C22.708 13.9707 22.664 13.7973 22.664 13.6ZM25.0256 13.16V15H25.4496V13.16H25.0256ZM26.1256 13.16L25.3336 13.92L26.2096 15H26.7376L25.8616 13.92L26.6576 13.16H26.1256ZM28.6901 13.56L28.7101 13.02L27.0581 14.6L27.0381 15.14L28.6901 13.56ZM27.4621 13.16H27.0381V15.14L27.4621 14.648V13.16ZM28.7101 13.02L28.2861 13.508V15H28.7101V13.02ZM29.4679 14.208H30.8759V13.848H29.4679V14.208ZM30.6439 13.16V15H31.0679V13.16H30.6439ZM29.2799 13.16V15H29.7039V13.16H29.2799ZM33.4038 13.16V15H33.8398V13.16H33.4038ZM31.6198 13.16V15H32.0558V13.16H31.6198ZM31.9238 14.152H32.4518C32.5478 14.152 32.6211 14.1733 32.6718 14.216C32.7224 14.2587 32.7478 14.32 32.7478 14.4C32.7478 14.4507 32.7358 14.4947 32.7118 14.532C32.6904 14.5693 32.6571 14.5973 32.6118 14.616C32.5691 14.6347 32.5158 14.644 32.4518 14.644H31.9238V15H32.4958C32.6238 15 32.7384 14.9773 32.8398 14.932C32.9411 14.8867 33.0211 14.8187 33.0798 14.728C33.1384 14.6373 33.1678 14.5267 33.1678 14.396C33.1678 14.1987 33.1024 14.0547 32.9718 13.964C32.8438 13.8707 32.6851 13.824 32.4958 13.824H31.9238V14.152Z" fill="black"/>
</svg>
