<svg width="63" height="19" viewBox="0 0 63 19" fill="none" xmlns="http://www.w3.org/2000/svg">
<g clip-path="url(#clip0_638_3599)">
<mask id="mask0_638_3599" style="mask-type:luminance" maskUnits="userSpaceOnUse" x="0" y="0" width="63" height="19">
<path d="M62.7 0H0V19H62.7V0Z" fill="white"/>
</mask>
<g mask="url(#mask0_638_3599)">
<path fill-rule="evenodd" clip-rule="evenodd" d="M16.4121 11.7998C16.6708 11.9135 16.9538 11.9304 17.1562 11.9304C17.754 11.9304 18.2061 11.5563 18.2061 10.2409C18.2061 9.20956 17.8344 8.87662 17.2932 8.87662C16.9697 8.87662 16.7355 8.96623 16.4121 9.14452V11.7998ZM16.4206 8.54374C16.6625 8.41422 17.0745 8.24309 17.5111 8.24309C18.5132 8.24309 19.0548 8.94147 19.0548 10.2409C19.0548 11.7597 18.3273 12.4987 17.1562 12.4987C16.7275 12.4987 16.0649 12.3606 15.5798 12.1002V6.4322L16.4206 6.22949V8.54374ZM7.42849 8.33106H7.4853L8.58388 12.384H9.45668L10.7663 6.62607H9.82072L8.99631 10.9224H8.93975L7.81641 6.62607H7.09694L6.0466 10.9224H5.99007L5.08493 6.62607H4.17999L5.48923 12.384H6.36138L7.42849 8.33106ZM13.7647 9.93302H11.9145C12.0029 9.12134 12.383 8.73975 12.8759 8.73975C13.3122 8.73975 13.7245 9.08055 13.7647 9.93302ZM14.4111 12.0775V11.4602C13.9669 11.7277 13.5629 11.8823 13.1266 11.8822C12.2939 11.8822 11.8982 11.4518 11.8982 10.4775H14.5327V10.177C14.5327 8.85356 13.91 8.19528 12.9002 8.19528C11.688 8.19528 11.0659 9.08866 11.0659 10.3236C11.0659 11.6065 11.6234 12.4512 12.9807 12.4512C13.5629 12.4512 14.0475 12.2886 14.4111 12.0775ZM22.7323 11.1624H22.6918L20.882 6.62265H19.9038V12.381H20.6312V8.30402H20.7037L22.3528 12.381H22.8695L24.5183 8.20642H24.5912V12.381H25.4639V6.62265H24.4613L22.7323 11.1624ZM29.0297 10.3233C29.0297 9.22704 28.5856 8.76439 28.0361 8.76439C27.5029 8.76439 27.0419 9.22704 27.0419 10.3233C27.0419 11.436 27.4626 11.8822 28.0361 11.8822C28.6095 11.8822 29.0297 11.436 29.0297 10.3233ZM26.1937 10.3233C26.1937 8.90163 26.9697 8.19528 28.0361 8.19528C29.1031 8.19528 29.8787 8.90163 29.8787 10.3233C29.8787 11.7117 29.1434 12.4512 28.0361 12.4512C26.929 12.4512 26.1937 11.7117 26.1937 10.3233ZM30.5178 8.79669C30.8813 8.57711 31.6494 8.19528 32.5784 8.19528C33.5481 8.19528 33.9111 8.57711 33.9111 9.41337V12.3536H33.0713V9.60039C33.0713 8.95895 32.7566 8.84527 32.344 8.84527C32.0212 8.84527 31.6085 8.99163 31.3582 9.1378V12.3536H30.5178V8.79669ZM37.5405 9.93302H35.6901C35.7794 9.12134 36.1587 8.73975 36.6517 8.73975C37.0881 8.73975 37.5007 9.08055 37.5405 9.93302ZM38.1868 12.0775V11.4602C37.7431 11.7277 37.3384 11.8823 36.9026 11.8822C36.0702 11.8822 35.6742 11.4518 35.6742 10.4775H38.3089V10.177C38.3089 8.85356 37.6864 8.19528 36.676 8.19528C35.4636 8.19528 34.8418 9.08866 34.8418 10.3236C34.8418 11.6065 35.3997 12.4512 36.7565 12.4512C37.3384 12.4512 37.8234 12.2886 38.1868 12.0775ZM42.5305 8.19528H41.6656L40.7449 11.1838H40.6964L39.6621 8.19528H38.773L40.3247 12.2553C40.1303 12.8567 39.7914 13.2954 39.2416 13.2954V13.9609C40.1707 13.9609 40.6631 13.3761 41.0677 12.2553L42.5305 8.19528Z" fill="#036CB5"/>
<path d="M52.1893 3.42236C53.1773 3.42236 54.1173 3.64873 54.9609 4.05366C55.0932 4.11334 55.2264 4.18478 55.3582 4.25627L54.7798 4.76863L53.9127 3.87516L52.4186 5.18543L51.5387 4.24421L48.7911 6.68636L50.5502 8.60429L49.8635 9.19981L51.599 11.1177L50.9122 11.7129L53.3947 14.441L54.864 13.1067L56.1419 14.5366C55.8887 14.7272 55.6115 14.9182 55.3106 15.0847C54.3946 15.5969 53.334 15.8941 52.2014 15.8941C48.7186 15.8941 45.8872 13.0953 45.8872 9.6529C45.875 6.23377 48.7068 3.42236 52.1893 3.42236ZM51.0323 9.27144L52.5386 7.93713L53.8885 9.42616L52.3819 10.7603L51.0323 9.27144ZM52.1051 11.8445L53.5991 10.4985L54.9609 11.9874L53.4545 13.3217L52.1051 11.8445ZM49.9604 6.73418L51.4663 5.39992L52.8159 6.88891L51.3095 8.22315L49.9604 6.73418ZM52.7194 6.01921L53.8401 5.01862L54.8526 6.12652L53.7318 7.13894L52.7194 6.01921ZM54.72 10.6055L55.8403 9.60483L56.8528 10.7243L55.7319 11.7256L54.72 10.6055ZM55.7079 12.8572L56.8288 11.8563L57.8403 12.9642L56.72 13.9765L55.7079 12.8572ZM56.1659 7.71078L56.9129 7.04363L57.5875 7.78247L56.8406 8.44937L56.1659 7.71078ZM55.2019 5.50698L55.9489 4.82812L56.624 5.57848L55.8764 6.24558L55.2019 5.50698ZM57.1178 9.91478L57.8648 9.24769L58.5516 9.98628L57.7927 10.6532L57.1178 9.91478ZM53.7558 8.25887L54.8766 7.2582L55.8886 8.3659L54.7683 9.36669L53.7558 8.25887Z" fill="#036CB5"/>
</g>
</g>
<defs>
<clipPath id="clip0_638_3599">
<rect width="62.7" height="19" fill="white"/>
</clipPath>
</defs>
</svg>
