<svg width="50" height="13" viewBox="0 0 50 13" fill="none" xmlns="http://www.w3.org/2000/svg">
<path d="M48.3385 3.60278L47.2152 6.32976C47.2152 6.36765 47.1765 6.40554 47.1765 6.4434L47.1377 6.51915L47.0989 6.4434C47.0989 6.40554 47.0602 6.36765 47.0602 6.32976L45.9369 3.60278H44.465L46.4016 8.29928L45.5882 10.0794H47.0602L49.7717 3.60278H48.3385Z" fill="black"/>
<path d="M37.4925 3.86793C37.2214 3.67855 36.9115 3.56494 36.5241 3.52705C35.8655 3.4513 35.2457 3.67855 34.8583 4.13307V3.6028H33.5414V8.2993H34.8583V5.83742C34.8583 5.2693 34.9746 5.15569 35.0521 5.00419C35.207 4.73906 35.5168 4.58756 35.8655 4.62542C36.2142 4.62542 36.5628 4.77694 36.7176 5.04205C36.834 5.23144 36.834 5.45868 36.834 5.61018C36.834 6.02681 36.834 8.2993 36.834 8.2993H38.1511V5.45868C38.1511 4.70119 37.9184 4.20881 37.4925 3.86793Z" fill="black"/>
<path d="M31.0235 3.64047C30.3652 3.41323 29.6679 3.45109 29.0093 3.75411C28.5446 3.94347 28.196 4.28435 27.9248 4.70098C27.6922 5.07973 27.5762 5.49636 27.5762 5.98871C27.5762 6.48109 27.6922 6.89772 27.9248 7.27646C28.1572 7.65521 28.4671 7.92034 28.8545 8.14759C29.2417 8.33697 29.7067 8.45058 30.1326 8.45058C30.3652 8.45058 30.5976 8.41272 30.8299 8.37483C31.0235 8.33697 31.2173 8.26122 31.4109 8.14759C31.7984 7.92034 32.1083 7.65521 32.3406 7.31435C32.573 6.93558 32.6893 6.51898 32.6893 6.0266C32.6505 4.89034 32.0307 4.01922 31.0235 3.64047ZM31.3722 5.98871C31.3722 6.40534 31.2173 6.74622 30.9462 6.97347C30.7524 7.16283 30.4813 7.2386 30.0938 7.2386C29.7454 7.2386 29.474 7.12497 29.2417 6.97347C28.9706 6.74622 28.8545 6.40534 28.8157 5.98871C28.8157 5.53422 28.9706 5.11759 29.3192 4.85248C29.5128 4.70098 29.7454 4.62523 30.0553 4.62523C30.3652 4.62523 30.5976 4.70098 30.7911 4.85248C31.2173 5.11759 31.4109 5.53422 31.3722 5.98871Z" fill="black"/>
<path d="M26.0654 3.86761C25.833 3.67823 25.4844 3.56462 25.097 3.52673C25.0195 3.52673 24.9421 3.52673 24.8646 3.52673C24.3223 3.52673 23.8962 3.75398 23.5088 4.20849L23.4314 4.28424H23.2764C23.1602 4.13275 23.044 3.98122 22.8891 3.90547C22.6566 3.67823 22.3468 3.56462 21.9594 3.52673C21.3396 3.45098 20.8361 3.64037 20.41 4.09486V3.60248H19.093V8.29897H20.41V5.8371V5.79922C20.41 5.26898 20.4874 5.15537 20.5649 5.00387C20.7199 4.73873 21.0297 4.58724 21.3396 4.58724C21.6495 4.58724 21.9594 4.73873 22.1143 5.00387C22.2306 5.19323 22.2306 5.42047 22.2306 5.64772V8.26109H23.5863V5.76135C23.5863 5.30686 23.6638 5.11748 23.7413 4.96598C23.8962 4.70085 24.2061 4.58724 24.516 4.58724C24.8259 4.58724 25.097 4.7766 25.252 5.00387C25.3294 5.15537 25.3682 5.34472 25.3682 5.49622C25.3682 5.57197 25.3682 5.60986 25.3682 5.68561V8.29897H26.6852V5.45836C26.6852 5.19323 26.6465 4.96598 26.6077 4.73873C26.5303 4.35999 26.3366 4.057 26.0654 3.86761Z" fill="black"/>
<path d="M43.1478 6.85988C42.9543 7.04927 42.4893 7.39015 41.8695 7.42801C41.366 7.42801 40.9398 7.3144 40.6687 7.01138C40.5527 6.85988 40.4364 6.70838 40.3976 6.51903H44.0775V6.48114C44.1163 6.29178 44.1163 6.10239 44.1163 5.9509C44.1163 5.7994 44.0775 5.57215 44 5.26916C43.8452 4.73889 43.5353 4.32229 43.1091 3.9814C42.6444 3.64052 42.1794 3.52691 42.0634 3.52691C41.0949 3.37542 40.0101 3.79202 39.4679 4.66314C39.0805 5.26916 39.0805 5.87515 39.1192 6.06451C39.1192 6.29178 39.158 7.01138 39.739 7.61739C40.3976 8.33702 41.366 8.37488 41.6759 8.41277C42.993 8.45063 43.8839 7.65526 44.0775 7.4659L43.1478 6.85988ZM40.8626 4.89039C41.0561 4.73889 41.2885 4.66314 41.5984 4.66314C41.9083 4.66314 42.1406 4.73889 42.3345 4.89039C42.5281 5.04189 42.6831 5.23127 42.7604 5.4964H40.3976C40.5139 5.23127 40.6687 5.04189 40.8626 4.89039Z" fill="black"/>
<path d="M9.95143 0.534668C6.96878 0.534668 4.6059 2.8829 4.6059 5.7614C4.6059 8.63988 7.0075 10.9881 9.95143 10.9881C12.8954 10.9881 15.297 8.63988 15.297 5.7614C15.3357 2.8829 12.8954 0.534668 9.95143 0.534668ZM9.95143 7.69301C8.86683 7.69301 7.93718 6.82188 7.93718 5.7614C7.93718 4.7009 8.82809 3.82977 9.95143 3.82977C11.0748 3.82977 11.9657 4.7009 11.9657 5.7614C11.927 6.82188 11.0748 7.69301 9.95143 7.69301Z" fill="#8B3FFD"/>
<path d="M4.60582 2.08765V9.70049H2.70774L0.267395 2.08765H4.60582Z" fill="#8B3FFD"/>
</svg>
