<svg xmlns="http://www.w3.org/2000/svg" viewBox="0 0 30 30"><path fill="#fff" d="M3.20594 15.1216V13.204H6.0811c.49192 0 .9075-.0778 1.24676-.2332.35621-.1555.62761-.3715.8142-.6479.18659-.2937.27989-.6478.27989-1.0624 0-.622-.21204-1.0884-.6361-1.39937-.40711-.31096-.97535-.46644-1.70475-.46644H4.30003V20.7449h2.18818c.55976 0 1.06016-.0691 1.50119-.2074.44103-.1554.78876-.3973 1.0432-.7255.2714-.3455.4071-.812.4071-1.3994 0-.38-.07633-.7083-.22899-.9847-.15267-.2764-.3647-.501-.6361-.6737-.2714-.1728-.58521-.2937-.94143-.3628-.33925-.0864-.72091-.1296-1.14497-.1296H3.20594v-2.3841h3.7657c.86509 0 1.70474.0951 2.51895.2851.81421.19 1.55211.501 2.21361.9329.6616.4146 1.1874.9502 1.5775 1.6066.4071.6392.6107 1.4166.6107 2.3323 0 1.2093-.2884 2.1853-.8651 2.9282-.5598.7429-1.357 1.2957-2.3917 1.6585-1.03475.3455-2.25606.5182-3.66396.5182H0V6h6.53909c1.23828 0 2.32388.17276 3.25683.51827.94988.32824 1.69628.83788 2.23908 1.52891.5598.67375.8396 1.5289.8396 2.56542 0 .9502-.2798 1.7622-.8396 2.4359-.5428.6738-1.2892 1.192-2.23908 1.5548-.93295.3455-2.01855.5183-3.25683.5183H3.20594ZM16.8964 6h4.3v18.1395h-4.3V6Zm2.697 3.60199V6h3.4858c1.5097 0 2.7734.24186 3.7912.72558 1.0347.46645 1.815 1.1402 2.3408 2.02127.5259.88106.7888 1.94355.7888 3.18735 0 1.2093-.2629 2.2631-.7888 3.1615-.5258.881-1.3061 1.5634-2.3408 2.0472-1.0178.4664-2.2815.6996-3.7912.6996h-3.4858v-3.602h3.4858c.8651 0 1.5436-.1986 2.0356-.596.4919-.3973.7378-.9674.7378-1.7103 0-.7601-.2459-1.3388-.7378-1.7362-.492-.39733-1.1705-.59601-2.0356-.59601h-3.4858Z"/></svg>
